<?xml version="1.0" standalone="no"?>
<!DOCTYPE svg PUBLIC "-//W3C//DTD SVG 20010904//EN"
 "http://www.w3.org/TR/2001/REC-SVG-20010904/DTD/svg10.dtd">
<svg version="1.0" xmlns="http://www.w3.org/2000/svg"
 width="193.000000pt" height="180.000000pt" viewBox="0 0 193.000000 180.000000"
 preserveAspectRatio="xMidYMid meet">

<g transform="translate(0.000000,180.000000) scale(0.100000,-0.100000)"
fill="#000000" stroke="none">
<path d="M835 1743 c-259 -36 -456 -203 -537 -458 -29 -89 -32 -290 -6 -370
75 -232 236 -390 458 -451 99 -27 254 -23 352 8 280 92 456 331 458 626 1 132
-54 289 -142 408 -125 167 -368 267 -583 237z m200 -58 c139 -26 289 -119 351
-216 13 -21 24 -41 24 -44 0 -2 -24 13 -52 35 -29 22 -57 40 -61 40 -4 0 -25
11 -45 25 -57 39 -66 32 -38 -24 28 -54 46 -170 46 -294 0 -165 -93 -265 -247
-267 l-53 0 0 45 c0 59 -26 76 -73 46 -46 -28 -227 -226 -227 -248 0 -10 53
-71 119 -137 106 -105 122 -118 145 -112 21 5 27 14 32 46 l7 40 86 0 c139 0
234 38 339 133 l46 42 -20 -35 c-31 -57 -144 -163 -211 -198 -120 -63 -281
-87 -403 -61 -68 15 -140 84 -182 176 -63 140 -62 349 4 448 45 68 98 95 186
95 69 0 72 -1 72 -24 0 -13 9 -34 19 -47 17 -21 21 -22 44 -10 14 8 78 67 142
132 110 110 116 119 104 141 -19 37 -221 228 -248 235 -34 8 -55 -8 -59 -46
l-3 -31 -83 0 c-89 0 -173 -18 -238 -51 -41 -21 -135 -109 -175 -164 -14 -19
-22 -24 -22 -15 -2 32 101 171 157 215 159 125 326 167 517 130z m98 -292 c-5
-1 -57 -7 -118 -13 -186 -19 -236 -30 -246 -58 -12 -32 -4 -42 39 -43 24 -1
14 -4 -29 -9 -73 -9 -131 -34 -168 -74 -17 -18 -27 -23 -32 -15 -5 8 -28 -8
-69 -47 -47 -44 -71 -78 -101 -142 -21 -46 -39 -91 -39 -100 0 -28 -16 0 -31
53 -16 59 -16 237 0 279 17 42 138 182 192 222 72 53 119 66 264 73 l130 6 3
39 3 39 105 -104 c57 -57 101 -105 97 -106z m190 -14 c7 -1 18 -1 24 0 7 1 32
-7 57 -18 34 -16 47 -29 60 -61 9 -22 16 -45 16 -50 0 -6 -17 -36 -39 -68 -21
-31 -46 -71 -54 -88 -16 -30 -83 -86 -137 -114 -24 -13 -24 -12 -8 6 9 11 30
46 45 79 25 53 27 71 27 160 -1 55 -3 120 -6 145 -3 25 -3 37 -1 28 3 -10 10
-19 16 -19z m-386 -181 c-3 -8 -6 -5 -6 6 -1 11 2 17 5 13 3 -3 4 -12 1 -19z
m-4 -310 c18 -12 86 -9 149 6 32 7 55 9 52 5 -3 -5 -11 -9 -17 -9 -7 0 -21
-13 -30 -30 -13 -21 -26 -30 -44 -30 -21 0 -23 -2 -13 -15 7 -8 16 -12 21 -9
5 3 9 1 9 -5 0 -6 -15 -12 -32 -15 -63 -10 -304 -17 -311 -9 -4 4 39 53 95
110 l103 104 3 -48 c2 -26 9 -51 15 -55z m-23 -288 c0 -5 -2 -10 -4 -10 -3 0
-8 5 -11 10 -3 6 -1 10 4 10 6 0 11 -4 11 -10z"/>
<path d="M84 382 c-39 -26 -48 -152 -13 -196 16 -21 29 -26 63 -26 42 0 76 21
76 48 0 17 -16 15 -46 -4 -20 -14 -30 -15 -49 -6 -23 11 -25 17 -25 75 0 36 5
68 12 75 15 15 54 16 63 2 8 -13 45 -13 45 -1 0 5 -7 17 -16 25 -16 17 -90 22
-110 8z"/>
<path d="M256 308 c-23 -33 -21 -103 4 -128 22 -22 70 -26 101 -10 16 9 19 22
19 73 0 36 -5 68 -12 75 -7 7 -31 12 -54 12 -33 0 -47 -5 -58 -22z m82 -20
c17 -17 15 -73 -3 -88 -8 -6 -23 -9 -35 -5 -16 5 -20 15 -20 49 0 23 3 46 7
49 10 11 38 8 51 -5z"/>
<path d="M420 245 c0 -78 2 -85 20 -85 18 0 20 7 20 65 0 52 4 67 16 72 33 12
49 -11 52 -76 2 -50 6 -61 20 -61 15 0 17 10 14 72 -4 87 -14 98 -89 98 l-53
0 0 -85z"/>
<path d="M590 326 c0 -3 11 -41 25 -85 35 -111 53 -110 87 4 23 79 24 85 8 85
-13 0 -22 -14 -31 -50 -7 -27 -16 -50 -20 -50 -4 0 -14 21 -21 47 -9 30 -20
49 -31 51 -9 2 -17 1 -17 -2z"/>
<path d="M766 308 c-9 -12 -16 -41 -16 -63 0 -66 20 -85 91 -85 45 0 59 3 59
14 0 11 -15 16 -52 18 -41 2 -54 7 -56 21 -3 14 5 17 52 17 56 0 56 0 56 31 0
54 -15 69 -70 69 -39 0 -52 -4 -64 -22z m92 -20 c21 -21 13 -28 -28 -28 -22 0
-40 4 -40 8 0 14 23 32 40 32 9 0 21 -5 28 -12z"/>
<path d="M940 245 c0 -76 2 -85 19 -85 14 0 17 6 13 25 -7 41 16 83 54 97 22
8 34 19 34 30 0 22 -29 24 -56 3 -25 -19 -38 -19 -30 0 4 10 -1 15 -14 15 -18
0 -20 -7 -20 -85z"/>
<path d="M1090 306 c-19 -50 -1 -70 70 -78 14 -2 25 -9 25 -18 0 -11 -13 -16
-47 -18 -34 -2 -48 -7 -48 -18 0 -10 13 -14 53 -14 59 0 77 12 77 51 0 33 -15
46 -60 51 -24 2 -36 9 -38 21 -3 14 4 17 42 17 34 0 46 4 46 15 0 12 -13 15
-55 15 -49 0 -57 -3 -65 -24z"/>
<path d="M1267 312 c-22 -24 -22 -100 -1 -130 11 -16 25 -22 54 -22 54 0 70
20 70 85 0 35 -5 59 -16 69 -22 22 -87 21 -107 -2z m81 -24 c17 -17 15 -73 -3
-88 -8 -6 -23 -9 -35 -5 -16 5 -20 15 -20 49 0 23 3 46 7 49 10 11 38 8 51 -5z"/>
<path d="M1430 245 c0 -69 3 -85 15 -85 11 0 15 11 15 40 0 43 34 90 65 90 8
0 15 9 15 20 0 24 -19 26 -46 5 -25 -19 -34 -19 -34 0 0 8 -7 15 -15 15 -12 0
-15 -16 -15 -85z"/>
<path d="M1586 308 c-9 -12 -16 -41 -16 -63 0 -66 20 -85 91 -85 45 0 59 3 59
14 0 11 -15 16 -52 18 -41 2 -54 7 -56 21 -3 14 5 17 52 17 56 0 56 0 56 31 0
54 -15 69 -70 69 -39 0 -52 -4 -64 -22z m92 -20 c21 -21 13 -28 -28 -28 -22 0
-40 4 -40 8 0 14 23 32 40 32 9 0 21 -5 28 -12z"/>
<path d="M1760 311 c-23 -45 -6 -73 52 -80 62 -9 59 -35 -4 -39 -34 -2 -48 -7
-48 -18 0 -10 13 -14 53 -14 59 0 77 12 77 51 0 33 -15 46 -60 51 -23 2 -36 9
-38 20 -3 13 6 17 39 20 66 5 62 28 -5 28 -44 0 -57 -4 -66 -19z"/>
</g>
</svg>
