<?xml version="1.0" encoding="UTF-8"?>
<svg version="1.1" xmlns="http://www.w3.org/2000/svg" width="193" height="180">
<path d="M0 0 C63.69 0 127.38 0 193 0 C193 59.4 193 118.8 193 180 C129.31 180 65.62 180 0 180 C0 120.6 0 61.2 0 0 Z " fill="#FDFDFC" transform="translate(0,0)"/>
<path d="M0 0 C12.17594848 9.40789113 22.33306282 23.52757271 25 39 C25.30844493 43.4195593 25.3246009 47.82107008 25.3125 52.25 C25.32861328 53.41402344 25.34472656 54.57804687 25.36132812 55.77734375 C25.37129041 73.56998002 18.24986072 87.89476801 5.83984375 100.37890625 C-8.58693406 113.69440544 -26.49253453 117.92301796 -45.6171875 117.17919922 C-61.95860511 115.95024425 -77.12711051 106.22424905 -87.6875 94.10546875 C-90.45238768 90.39248613 -92.73575136 86.56645383 -94.9375 82.5 C-95.50392212 81.46879028 -95.50392212 81.46879028 -96.08178711 80.41674805 C-102.97226437 67.07420702 -103.70293087 47.71346382 -99.4621582 33.42553711 C-98.45661185 30.54191282 -97.28091298 27.77117185 -96 25 C-95.62746094 24.16855469 -95.25492188 23.33710937 -94.87109375 22.48046875 C-86.89670685 6.61505091 -72.58499093 -4.33675829 -55.984375 -10.03515625 C-36.2150196 -15.37486908 -16.71314798 -11.81569637 0 0 Z " fill="#1A2E3C" transform="translate(129,19)"/>
<path d="M0 0 C6.00325328 4.4407627 14.27250052 10.69269415 15.53125 18.4375 C15.11617188 18.0971875 14.70109375 17.756875 14.2734375 17.40625 C7.79765546 12.3123294 0.71997722 8.41553164 -6.46875 4.4375 C-5.96214844 5.29408203 -5.96214844 5.29408203 -5.4453125 6.16796875 C1.39149056 18.59672344 3.4061906 36.92484169 -0.37890625 50.765625 C-3.4066554 57.26895757 -7.47190061 60.73340917 -13.65625 64.25 C-18.67256601 65.81245908 -23.25941689 65.69184357 -28.46875 65.4375 C-29.12875 62.4675 -29.78875 59.4975 -30.46875 56.4375 C-31.78875 56.1075 -33.10875 55.7775 -34.46875 55.4375 C-36.43150218 56.56312656 -36.43150218 56.56312656 -38.21875 58.3671875 C-38.91355469 59.01655273 -39.60835937 59.66591797 -40.32421875 60.33496094 C-41.03191406 61.02879883 -41.73960938 61.72263672 -42.46875 62.4375 C-43.48388672 63.4279834 -43.48388672 63.4279834 -44.51953125 64.43847656 C-46.53598375 66.45003476 -48.50615522 68.49845896 -50.46875 70.5625 C-51.48775391 71.59697266 -51.48775391 71.59697266 -52.52734375 72.65234375 C-53.48833984 73.66361328 -53.48833984 73.66361328 -54.46875 74.6953125 C-55.335 75.59467529 -55.335 75.59467529 -56.21875 76.51220703 C-57.89784726 79.09841036 -58.01107487 80.40335018 -57.46875 83.4375 C-55.63989687 86.03745882 -55.63989687 86.03745882 -53.0859375 88.484375 C-52.16554687 89.41121094 -51.24515625 90.33804688 -50.296875 91.29296875 C-49.81154297 91.76782715 -49.32621094 92.24268555 -48.82617188 92.73193359 C-47.35178515 94.17961041 -45.90590285 95.65192906 -44.4609375 97.12890625 C-43.06875 98.51142578 -43.06875 98.51142578 -41.6484375 99.921875 C-40.80007324 100.76459961 -39.95170898 101.60732422 -39.07763672 102.47558594 C-36.13180453 104.69088703 -34.10328628 105.14175047 -30.46875 105.4375 C-30.13875 102.7975 -29.80875 100.1575 -29.46875 97.4375 C-28.2828125 97.44652344 -27.096875 97.45554687 -25.875 97.46484375 C-9.28064007 97.28040452 3.83342027 92.65043824 16.03125 81.0625 C16.52625 80.52625 17.02125 79.99 17.53125 79.4375 C13.49273942 90.74934805 3.96081094 98.74620107 -6.55859375 103.97265625 C-16.10895707 108.10351958 -24.37413336 109.77047821 -34.71875 109.6875 C-36.18828125 109.69910156 -36.18828125 109.69910156 -37.6875 109.7109375 C-38.63109375 109.70835937 -39.5746875 109.70578125 -40.546875 109.703125 C-41.39668945 109.70086914 -42.24650391 109.69861328 -43.12207031 109.69628906 C-45.6455093 109.41800719 -47.28776432 108.70481251 -49.46875 107.4375 C-49.46875 106.7775 -49.46875 106.1175 -49.46875 105.4375 C-50.520625 105.1590625 -50.520625 105.1590625 -51.59375 104.875 C-58.61499807 101.36437597 -61.83256057 94.51926342 -64.46875 87.4375 C-64.8095459 86.52274902 -65.1503418 85.60799805 -65.50146484 84.66552734 C-67.08877131 79.36836274 -66.83758769 74.11869885 -66.84375 68.625 C-66.86824219 67.48740234 -66.89273438 66.34980469 -66.91796875 65.17773438 C-66.94664205 56.89592912 -65.76703188 50.66820756 -60.6171875 44.0625 C-60.03195313 43.52625 -59.44671875 42.99 -58.84375 42.4375 C-58.25335938 41.880625 -57.66296875 41.32375 -57.0546875 40.75 C-53.34079791 37.6764362 -49.426876 38.32663909 -44.84375 38.375 C-44.04195312 38.37951172 -43.24015625 38.38402344 -42.4140625 38.38867188 C-40.43225994 38.40046832 -38.45049567 38.41840395 -36.46875 38.4375 C-35.80875 40.7475 -35.14875 43.0575 -34.46875 45.4375 C-28.33603161 44.70330132 -25.28110208 41.05029817 -20.98974609 36.8984375 C-19.31073878 35.28572807 -17.60260229 33.70686787 -15.89453125 32.125 C-14.68864385 30.98070362 -13.4842025 29.83488133 -12.28125 28.6875 C-11.69214844 28.14512695 -11.10304688 27.60275391 -10.49609375 27.04394531 C-8.63986585 25.30281385 -8.63986585 25.30281385 -6.46875 22.4375 C-6.63840442 17.96144333 -8.50126974 15.92031604 -11.6171875 12.86328125 C-12.45765625 12.03119141 -13.298125 11.19910156 -14.1640625 10.34179688 C-15.04835938 9.48650391 -15.93265625 8.63121094 -16.84375 7.75 C-17.7203125 6.88310547 -18.596875 6.01621094 -19.5 5.12304688 C-25.14026041 -1.11619837 -25.14026041 -1.11619837 -32.65625 -3.6875 C-34.0484375 -3.625625 -34.0484375 -3.625625 -35.46875 -3.5625 C-35.79875 -1.2525 -36.12875 1.0575 -36.46875 3.4375 C-37.38986572 3.45151855 -37.38986572 3.45151855 -38.32958984 3.46582031 C-41.16839433 3.52019741 -44.00566732 3.60370552 -46.84375 3.6875 C-47.80925781 3.70167969 -48.77476563 3.71585938 -49.76953125 3.73046875 C-61.38283273 4.12017685 -70.63016671 8.29383758 -78.63671875 16.71875 C-80.01027858 18.25993917 -81.36865794 19.81487666 -82.70703125 21.38671875 C-84.22854036 23.1578768 -85.7932212 24.81352593 -87.46875 26.4375 C-86.90866958 22.64362195 -85.89538636 20.14714691 -83.71875 17 C-83.22890625 16.27941406 -82.7390625 15.55882813 -82.234375 14.81640625 C-78.24336099 9.43913295 -74.42374107 5.23363209 -68.96875 1.375 C-68.06104858 0.72930054 -68.06104858 0.72930054 -67.13500977 0.07055664 C-47.22945798 -13.57269047 -20.27644251 -12.83319146 0 0 Z " fill="#F8F9F9" transform="translate(124.46875,21.5625)"/>
<path d="M0 0 C4.1013353 3.47721906 8.16272488 6.99684738 12.1875 10.5625 C13.41533203 11.64724609 13.41533203 11.64724609 14.66796875 12.75390625 C17.02351216 15.02264571 19.01565144 17.40438086 21 20 C19.5155686 23.45116902 17.55666933 25.68859241 14.90234375 28.328125 C14.10119141 29.12734375 13.30003906 29.9265625 12.47460938 30.75 C11.63736328 31.575 10.80011719 32.4 9.9375 33.25 C8.67583008 34.51070312 8.67583008 34.51070312 7.38867188 35.796875 C1.14023184 42 1.14023184 42 0 42 C0 39.36 0 36.72 0 34 C-16.79048324 33.38985035 -16.79048324 33.38985035 -31 41 C-38.90421131 49.71987931 -39.56993165 62.0881223 -39.22265625 73.296875 C-38.95419705 77.76177537 -38.43090547 81.76451982 -37 86 C-36.74347656 86.79148437 -36.48695312 87.58296875 -36.22265625 88.3984375 C-34.38088084 93.28348988 -32.79607695 95.73370431 -27.875 98.03515625 C-23.70626857 100.18031596 -20.29374093 103.70625907 -17 107 C-27.73820324 106.82396388 -34.75532619 101.39849611 -42.3125 94.125 C-50.42643356 85.57455736 -54.41215301 77.12089624 -58 66 C-58.33 65.01 -58.66 64.02 -59 63 C-59.23118409 59.42072639 -59.18517145 55.83596303 -59.1875 52.25 C-59.19974609 51.27289063 -59.21199219 50.29578125 -59.22460938 49.2890625 C-59.24568044 38.86590939 -57.12748944 33.35225331 -49.875 25.9375 C-48.9159375 24.9155957 -48.9159375 24.9155957 -47.9375 23.87304688 C-38.62878643 14.1437589 -30.78361281 8.80117137 -17.14257812 8.38085938 C-15.96115234 8.35830078 -14.77972656 8.33574219 -13.5625 8.3125 C-12.35400391 8.27833984 -11.14550781 8.24417969 -9.90039062 8.20898438 C-6.93368651 8.12690165 -3.96726324 8.05761985 -1 8 C-0.67 5.36 -0.34 2.72 0 0 Z " fill="#F97A1C" transform="translate(92,21)"/>
<path d="M0 0 C6.37752189 2.34276314 11.89319778 5.20011805 15.29296875 11.33203125 C20.8964252 24.50116535 20.17011275 40.26284473 17 54 C15.9296875 56.3671875 15.9296875 56.3671875 15 58 C13.02 58 11.04 58 9 58 C8.9071875 58.58910156 8.814375 59.17820313 8.71875 59.78515625 C6.69498203 66.02144125 -1.15909464 69.92284098 -6.62890625 72.859375 C-7.41136719 73.23578125 -8.19382813 73.6121875 -9 74 C-10.010625 74.53753906 -11.02125 75.07507813 -12.0625 75.62890625 C-17.02293541 77.72880835 -22.14430294 77.32181014 -27.4375 77.1875 C-28.45521484 77.17396484 -29.47292969 77.16042969 -30.52148438 77.14648438 C-33.01488214 77.1113661 -35.50715512 77.06218559 -38 77 C-38 79.31 -38 81.62 -38 84 C-42 84 -42 84 -43.5703125 82.6015625 C-44.08335938 81.94929688 -44.59640625 81.29703125 -45.125 80.625 C-49.41671848 75.40761676 -54.18339441 70.72938336 -59 66 C-57.54758264 62.66765426 -55.7149914 60.45774394 -53.15625 57.890625 C-52.40472656 57.13652344 -51.65320313 56.38242188 -50.87890625 55.60546875 C-50.09386719 54.82816406 -49.30882813 54.05085938 -48.5 53.25 C-47.71496094 52.45722656 -46.92992188 51.66445312 -46.12109375 50.84765625 C-44.99380859 49.72423828 -44.99380859 49.72423828 -43.84375 48.578125 C-43.15474609 47.89137695 -42.46574219 47.20462891 -41.75585938 46.49707031 C-40 45 -40 45 -38 45 C-38 48.3 -38 51.6 -38 55 C-27.38692298 54.97100252 -20.26908453 53.48578472 -11 48 C-10.25105469 47.649375 -9.50210938 47.29875 -8.73046875 46.9375 C-6.12302497 45.52488937 -5.94903561 43.78779211 -5 41 C-4.68119873 40.43474609 -4.36239746 39.86949219 -4.03393555 39.28710938 C-0.07766349 31.97116717 -0.57791094 24.67271698 -0.8125 16.5625 C-0.86850605 13.85554106 -0.91295742 11.1486081 -0.95703125 8.44140625 C-0.98772705 7.25232666 -1.01842285 6.06324707 -1.05004883 4.83813477 C-1 2 -1 2 0 0 Z " fill="#5D6D7A" transform="translate(130,37)"/>
<path d="M0 0 C0.33 0 0.66 0 1 0 C1.79815456 18.26887095 1.79815456 18.26887095 -5.25 26.6875 C-12.54519305 32.82209416 -19.13802925 36.36570454 -28.8125 36.125 C-29.85180664 36.11146484 -29.85180664 36.11146484 -30.91210938 36.09765625 C-32.60822395 36.07426157 -34.30415871 36.03839641 -36 36 C-36 32.7 -36 29.4 -36 26 C-43.0523398 31.96736444 -49.5222476 38.42508131 -56 45 C-54.64937713 48.02496581 -53.14970763 50.0805694 -50.77734375 52.3828125 C-49.84631836 53.29740234 -49.84631836 53.29740234 -48.89648438 54.23046875 C-48.25001953 54.85566406 -47.60355469 55.48085937 -46.9375 56.125 C-45.6527607 57.37536074 -44.37010319 58.62786516 -43.08984375 59.8828125 C-42.23700806 60.70869873 -42.23700806 60.70869873 -41.36694336 61.55126953 C-40 63 -40 63 -39 65 C-38.34 65 -37.68 65 -37 65 C-36.67 62.69 -36.34 60.38 -36 58 C-35.39115967 57.99589111 -34.78231934 57.99178223 -34.1550293 57.98754883 C-17.82034408 58.07677064 -17.82034408 58.07677064 -3 52 C-2.07574219 51.40058594 -1.15148437 50.80117187 -0.19921875 50.18359375 C3.07837702 47.96298784 6.19733237 45.80266763 9 43 C10.32 43 11.64 43 13 43 C12.52011774 47.3189403 10.181105 49.21653313 7 52 C-5.86269784 61.94294434 -17.19795019 63.74382034 -33 63 C-32.979375 63.94875 -32.95875 64.8975 -32.9375 65.875 C-33 69 -33 69 -34 71 C-37.83508519 71.41740749 -39.51649942 71.3473494 -42.70068359 69.05981445 C-43.59094238 68.1699585 -44.48120117 67.28010254 -45.3984375 66.36328125 C-45.8782608 65.88682663 -46.35808411 65.41037201 -46.85244751 64.91947937 C-47.85963234 63.91199646 -48.85940124 62.89705136 -49.85205078 61.87524414 C-51.37224108 60.31533101 -52.91966369 58.78694871 -54.47265625 57.25976562 C-55.44967966 56.27518383 -56.42500113 55.28890963 -57.3984375 54.30078125 C-58.28192871 53.40528564 -59.16541992 52.50979004 -60.07568359 51.5871582 C-62 49 -62 49 -62.3815918 46.29101562 C-61.87274861 43.23600315 -60.72064163 42.2453601 -58.4375 40.1875 C-55.60947923 37.53871999 -52.95221795 34.88657832 -50.4375 31.9375 C-41.31134428 21.41851413 -41.31134428 21.41851413 -37.0625 20.0625 C-36.0415625 20.0315625 -36.0415625 20.0315625 -35 20 C-32.39665076 22.71182212 -32.00543309 23.89133813 -31.8125 27.75 C-31.9053125 29.35875 -31.9053125 29.35875 -32 31 C-23.5248129 30.82276225 -15.69837082 29.52936467 -9.37109375 23.4296875 C-5.20047136 18.07635129 -3.38446079 11.6912255 -2.4375 5.0625 C-2 2 -2 2 0 0 Z " fill="#122532" transform="translate(128,56)"/>
<path d="M0 0 C0.99 0.33 1.98 0.66 3 1 C2.401875 1.9075 1.80375 2.815 1.1875 3.75 C-5.10999524 14.97791856 -6.11808216 30.61240422 -2.68359375 42.9765625 C-2.45800781 43.64429688 -2.23242188 44.31203125 -2 45 C-1.74347656 45.79148438 -1.48695312 46.58296875 -1.22265625 47.3984375 C0.61911916 52.28348988 2.20392305 54.73370431 7.125 57.03515625 C11.29373143 59.18031596 14.70625907 62.70625907 18 66 C7.26179676 65.82396388 0.24467381 60.39849611 -7.3125 53.125 C-11.49496453 48.74337049 -15.03555609 44.28402503 -18 39 C-18.39703125 38.34386719 -18.7940625 37.68773437 -19.203125 37.01171875 C-20.27865366 34.88200128 -20.8447557 33.38632669 -21 31 C-19.78613608 27.3869027 -17.92428526 24.27503703 -16 21 C-15.45478866 19.7604388 -14.93032749 18.51130426 -14.4375 17.25 C-11.11850425 9.74618352 -6.17478091 5.19842666 0 0 Z " fill="#D94703" transform="translate(57,62)"/>
<path d="M0 0 C6.04394827 2.22022589 11.75887425 5.24215278 15.16015625 10.9453125 C16.7140239 14.74686779 16.84869131 18.05842692 16 22 C13.7133661 26.62863423 10.96771348 30.78272296 8 35 C7.56171875 35.64453125 7.1234375 36.2890625 6.671875 36.953125 C3.34769551 41.4009708 -1.34008145 44.13704351 -6 47 C-6.66 46.67 -7.32 46.34 -8 46 C-7.66226563 45.40832031 -7.32453125 44.81664062 -6.9765625 44.20703125 C-6.53054687 43.41683594 -6.08453125 42.62664062 -5.625 41.8125 C-4.96371094 40.64654297 -4.96371094 40.64654297 -4.2890625 39.45703125 C-1.64744899 34.42195581 -0.76045938 30.76141409 -0.83984375 25.01953125 C-0.84504532 24.36546799 -0.85024689 23.71140472 -0.85560608 23.03752136 C-0.87331881 20.96228093 -0.90449388 18.88754899 -0.9375 16.8125 C-0.96513643 14.72679086 -0.98982346 12.64115106 -1.00868225 10.55534363 C-1.02650528 8.67069293 -1.05390983 6.78614012 -1.08178711 4.90161133 C-1 2 -1 2 0 0 Z " fill="#7B8996" transform="translate(130,37)"/>
<path d="M0 0 C0 2.64 0 5.28 0 8 C-0.33 8 -0.66 8 -1 8 C-1 5.69 -1 3.38 -1 1 C-1.99 1 -2.98 1 -4 1 C-4 2.32 -4 3.64 -4 5 C-5.134375 4.99097656 -6.26875 4.98195313 -7.4375 4.97265625 C-18.41975264 4.97106648 -18.41975264 4.97106648 -27.45703125 10.625 C-32.63441249 18.59423493 -33.63152928 25.36979353 -33.5 34.8125 C-33.51546875 35.91142578 -33.5309375 37.01035156 -33.546875 38.14257812 C-33.50020556 48.04233414 -31.31593383 56.60116678 -26 65 C-27.34313399 64.35330586 -28.67391178 63.68096422 -30 63 C-30.82628906 62.59007812 -31.65257812 62.18015625 -32.50390625 61.7578125 C-35.52658972 59.62916217 -36.11512551 58.16425534 -37.25 54.6875 C-37.56453125 53.76324219 -37.8790625 52.83898437 -38.203125 51.88671875 C-41.98418108 38.18965776 -40.94989772 23.67145249 -34.97265625 10.78515625 C-33.80920893 8.89300171 -32.61568082 7.52231233 -31 6 C-30.40445313 5.42378906 -29.80890625 4.84757812 -29.1953125 4.25390625 C-20.82665246 -2.1938336 -9.99222708 -0.53780963 0 0 Z " fill="#292424" transform="translate(92,55)"/>
<path d="M0 0 C3.91993011 0.35635728 4.98981242 1.27263134 7.78515625 3.98046875 C8.63078125 4.79386719 9.47640625 5.60726563 10.34765625 6.4453125 C11.03021484 7.12376221 11.03021484 7.12376221 11.7265625 7.81591797 C13.36968762 9.43812864 15.0446915 11.02325963 16.72265625 12.609375 C17.91149886 13.7525116 19.09901187 14.89703265 20.28515625 16.04296875 C21.14379272 16.85640747 21.14379272 16.85640747 22.01977539 17.6862793 C25.14579519 20.76971671 27.11052458 22.83178938 27.22265625 27.29296875 C25.47192383 29.74072266 25.47192383 29.74072266 22.8671875 32.26953125 C21.46823242 33.64625 21.46823242 33.64625 20.04101562 35.05078125 C19.03919075 36.00664485 18.03723636 36.96237272 17.03515625 37.91796875 C16.05142334 38.88017188 15.06898525 39.84370069 14.08789062 40.80859375 C5.46582769 49.21170244 5.46582769 49.21170244 2.22265625 51.29296875 C-2.18760016 50.88271234 -2.18760016 50.88271234 -3.77734375 49.29296875 C-4.98216303 41.7026073 -4.98216303 41.7026073 -3.77734375 39.29296875 C-2.78734375 39.29296875 -1.79734375 39.29296875 -0.77734375 39.29296875 C-0.77734375 41.60296875 -0.77734375 43.91296875 -0.77734375 46.29296875 C6.6818132 40.09578398 13.42014925 33.18880283 20.22265625 26.29296875 C17.04446756 19.47619955 11.73167736 14.66350334 6.0546875 9.87109375 C4.36074674 8.4119209 2.78101141 6.89474557 1.22265625 5.29296875 C0.89265625 7.60296875 0.56265625 9.91296875 0.22265625 12.29296875 C-6.70734375 11.79796875 -6.70734375 11.79796875 -13.77734375 11.29296875 C-10.5897201 9.16788631 -8.51222152 8.79095245 -4.77734375 8.29296875 C-4.63296875 7.15859375 -4.48859375 6.02421875 -4.33984375 4.85546875 C-3.63371231 0.38330299 -3.63371231 0.38330299 0 0 Z " fill="#152430" transform="translate(91.77734375,16.70703125)"/>
<path d="M0 0 C0.33 0 0.66 0 1 0 C1.0093457 0.66418945 1.01869141 1.32837891 1.02832031 2.01269531 C1.06566137 19.47344828 1.06566137 19.47344828 6 36 C6.2990625 36.71542969 6.598125 37.43085937 6.90625 38.16796875 C12.23812649 50.04977971 22.2688409 60.43658667 34 66 C37.02269699 66.93453206 39.8650275 67.49435927 43 68 C43 68.66 43 69.32 43 70 C42.01 70 41.02 70 40 70 C40 70.66 40 71.32 40 72 C34.02986973 71.58758969 29.98306538 70.35264544 25 66.9375 C24.39406006 66.53192871 23.78812012 66.12635742 23.16381836 65.70849609 C14.21985333 59.57186583 8.38624265 52.39308169 3 43 C2.51273438 42.15050781 2.02546875 41.30101562 1.5234375 40.42578125 C-4.9375172 28.39178082 -4.2518825 16.31102155 -4 3 C-3.34 2.67 -2.68 2.34 -2 2 C-1.34 2.33 -0.68 2.66 0 3 C0 2.01 0 1.02 0 0 Z " fill="#18242E" transform="translate(32,60)"/>
<path d="M0 0 C0.93779297 0.00322266 1.87558594 0.00644531 2.84179688 0.00976562 C4.30649414 0.02233398 4.30649414 0.02233398 5.80078125 0.03515625 C6.78884766 0.03966797 7.77691406 0.04417969 8.79492188 0.04882812 C11.23443599 0.06061322 13.67382814 0.07706614 16.11328125 0.09765625 C16.11328125 0.42765625 16.11328125 0.75765625 16.11328125 1.09765625 C14.13328125 1.42765625 12.15328125 1.75765625 10.11328125 2.09765625 C15.06328125 3.08765625 15.06328125 3.08765625 20.11328125 4.09765625 C20.11328125 4.42765625 20.11328125 4.75765625 20.11328125 5.09765625 C19.38850586 5.09652832 18.66373047 5.09540039 17.91699219 5.09423828 C-5.22831155 5.09125678 -5.22831155 5.09125678 -23.82421875 17.66015625 C-25.52077275 19.46418425 -27.20864317 21.27642731 -28.88671875 23.09765625 C-30.54646509 24.77121463 -32.21108367 26.44000652 -33.88671875 28.09765625 C-33.58132125 21.98970634 -30.70607786 18.56804248 -26.88671875 14.09765625 C-26.12875 13.17919922 -26.12875 13.17919922 -25.35546875 12.2421875 C-19.11894508 5.31781195 -9.41812436 -0.05707954 0 0 Z " fill="#1D2B36" transform="translate(70.88671875,24.90234375)"/>
<path d="M0 0 C1.0209375 0.00580078 1.0209375 0.00580078 2.0625 0.01171875 C4 0.3125 4 0.3125 7 2.3125 C7.36328125 5.02734375 7.36328125 5.02734375 7.3125 8.25 C7.30863281 9.31089844 7.30476562 10.37179688 7.30078125 11.46484375 C7 14.3125 7 14.3125 5 17.3125 C2.94140625 17.7109375 2.94140625 17.7109375 0.5625 17.6875 C-0.21996094 17.69523437 -1.00242188 17.70296875 -1.80859375 17.7109375 C-4 17.3125 -4 17.3125 -5.76171875 16.1328125 C-7.46697788 13.62602778 -7.39927384 11.82245673 -7.375 8.8125 C-7.38273437 7.8534375 -7.39046875 6.894375 -7.3984375 5.90625 C-7 3.3125 -7 3.3125 -5.7265625 1.48828125 C-3.64356061 0.06976639 -2.50148755 -0.06158966 0 0 Z " fill="#D94911" transform="translate(131,146.6875)"/>
<path d="M0 0 C1.0209375 -0.01160156 1.0209375 -0.01160156 2.0625 -0.0234375 C4.64404776 0.5074453 5.49068947 1.2175193 7 3.375 C7.3984375 5.96875 7.3984375 5.96875 7.375 8.875 C7.38273437 9.8340625 7.39046875 10.793125 7.3984375 11.78125 C7 14.375 7 14.375 5.76171875 16.1953125 C3.52426832 17.6935609 2.11544409 17.77647062 -0.5625 17.75 C-1.34753906 17.75773437 -2.13257813 17.76546875 -2.94140625 17.7734375 C-3.62074219 17.64195312 -4.30007812 17.51046875 -5 17.375 C-7.22264871 14.04102694 -7.29675463 12.77985109 -7.3125 8.875 C-7.32925781 7.9159375 -7.34601562 6.956875 -7.36328125 5.96875 C-7 3.375 -7 3.375 -5.73046875 1.5546875 C-3.65547785 0.14013389 -2.49515132 -0.02835399 0 0 Z " fill="#D94911" transform="translate(32,146.625)"/>
<path d="M0 0 C0.7734375 -0.00773438 1.546875 -0.01546875 2.34375 -0.0234375 C5.02244468 0.47153869 5.91670512 1.1784925 7.5 3.375 C7.6875 7.0625 7.6875 7.0625 7.5 10.375 C3.87 10.375 0.24 10.375 -3.5 10.375 C-3.5 11.365 -3.5 12.355 -3.5 13.375 C0.13 13.375 3.76 13.375 7.5 13.375 C7.5 15.025 7.5 16.675 7.5 18.375 C-2.25961538 18.98076923 -2.25961538 18.98076923 -6.1875 17.0625 C-8.30119575 12.73445632 -8.29936269 8.09196003 -7.5 3.375 C-5.40345242 0.318904 -3.61108584 -0.03611086 0 0 Z " fill="#DA4E17" transform="translate(82.5,146.625)"/>
<path d="M0 0 C3.96636671 1.48646767 7.61620164 3.30796135 11.3125 5.375 C12.38113281 5.96023437 13.44976562 6.54546875 14.55078125 7.1484375 C15.76314453 8.06496094 15.76314453 8.06496094 17 9 C17 10.32 17 11.64 17 13 C16.360625 12.814375 15.72125 12.62875 15.0625 12.4375 C14.0415625 12.2209375 14.0415625 12.2209375 13 12 C11.67112965 13.10267706 11.67112965 13.10267706 11.88647461 15.86743164 C11.89171143 17.11903076 11.89694824 18.37062988 11.90234375 19.66015625 C11.90446617 20.65685585 11.90446617 20.65685585 11.90663147 21.6736908 C11.91224482 23.80333899 11.92479946 25.93288339 11.9375 28.0625 C11.94251329 29.50325369 11.94707649 30.94400903 11.95117188 32.38476562 C11.96221855 35.92321102 11.97949208 39.46159539 12 43 C11.67 43 11.34 43 11 43 C10.67 39.04 10.34 35.08 10 31 C8.03177114 32.96822886 8.33751619 36.34808709 8 39 C7.67 39 7.34 39 7 39 C6.96036133 38.29504395 6.92072266 37.59008789 6.87988281 36.86376953 C6.68731704 33.61621689 6.4688237 30.37088495 6.25 27.125 C6.1571875 25.46210937 6.1571875 25.46210937 6.0625 23.765625 C5.60807731 17.32797024 4.61561293 12.00377357 1.92871094 6.11669922 C1.03823853 4.08715249 0.47149014 2.16089443 0 0 Z " fill="#23323F" transform="translate(118,26)"/>
<path d="M0 0 C0.7734375 -0.00773438 1.546875 -0.01546875 2.34375 -0.0234375 C5.02244468 0.47153869 5.91670512 1.1784925 7.5 3.375 C7.6875 7.0625 7.6875 7.0625 7.5 10.375 C3.87 10.375 0.24 10.375 -3.5 10.375 C-3.17 11.365 -2.84 12.355 -2.5 13.375 C0.8 13.705 4.1 14.035 7.5 14.375 C7.5 15.695 7.5 17.015 7.5 18.375 C5.56318839 18.45607583 3.6254066 18.51422475 1.6875 18.5625 C0.60855469 18.59730469 -0.47039062 18.63210937 -1.58203125 18.66796875 C-4.5 18.375 -4.5 18.375 -6.36328125 17.23828125 C-7.98974554 14.57222123 -7.89780622 12.47664622 -7.875 9.375 C-7.88273438 8.323125 -7.89046875 7.27125 -7.8984375 6.1875 C-7.5 3.375 -7.5 3.375 -6.2578125 1.5234375 C-4.03698639 0.07249777 -2.64024223 -0.02640242 0 0 Z " fill="#DA4B14" transform="translate(163.5,146.625)"/>
<path d="M0 0 C1.14662109 0.00193359 1.14662109 0.00193359 2.31640625 0.00390625 C4.93360215 0.53891315 5.86414743 1.30115865 7.4375 3.4375 C7.4375 4.4275 7.4375 5.4175 7.4375 6.4375 C3.8075 6.1075 0.1775 5.7775 -3.5625 5.4375 C-3.5625 9.7275 -3.5625 14.0175 -3.5625 18.4375 C0.61414661 18.4375 3.52895257 18.35715822 7.4375 17.4375 C7.0625 19.875 7.0625 19.875 6.4375 22.4375 C3.9933206 23.6595897 2.22720128 23.67391068 -0.5 23.75 C-1.37527344 23.78738281 -2.25054688 23.82476562 -3.15234375 23.86328125 C-5.5625 23.4375 -5.5625 23.4375 -7.3515625 21.88671875 C-9.03084541 18.49023364 -8.99628441 15.71253857 -9 11.9375 C-9.01933594 10.6278125 -9.03867188 9.318125 -9.05859375 7.96875 C-8.5625 4.4375 -8.5625 4.4375 -6.8203125 1.99609375 C-4.28234883 0.24410845 -3.05053917 -0.07742485 0 0 Z " fill="#D9480F" transform="translate(14.5625,140.5625)"/>
<path d="M0 0 C0.90492187 0.02320313 1.80984375 0.04640625 2.7421875 0.0703125 C4.10730469 0.09738281 4.10730469 0.09738281 5.5 0.125 C6.19867188 0.14820313 6.89734375 0.17140625 7.6171875 0.1953125 C7.6171875 1.5153125 7.6171875 2.8353125 7.6171875 4.1953125 C4.9771875 4.1953125 2.3371875 4.1953125 -0.3828125 4.1953125 C-0.3828125 5.5153125 -0.3828125 6.8353125 -0.3828125 8.1953125 C0.7103125 8.1334375 1.8034375 8.0715625 2.9296875 8.0078125 C6.6171875 8.1953125 6.6171875 8.1953125 8.6171875 9.3203125 C10.16015824 12.21338263 9.52974838 14.13171525 8.6171875 17.1953125 C5.3034775 19.4044525 4.2725854 19.42012803 0.4296875 19.3203125 C-0.47136719 19.30226562 -1.37242188 19.28421875 -2.30078125 19.265625 C-2.98785156 19.24242187 -3.67492187 19.21921875 -4.3828125 19.1953125 C-4.3828125 17.8753125 -4.3828125 16.5553125 -4.3828125 15.1953125 C0.0721875 14.7003125 0.0721875 14.7003125 4.6171875 14.1953125 C4.6171875 13.5353125 4.6171875 12.8753125 4.6171875 12.1953125 C2.59895833 12.03255208 0.58072917 11.86979167 -1.4375 11.70703125 C-3.3828125 11.1953125 -3.3828125 11.1953125 -5.3828125 8.1953125 C-4.7455609 0.3889804 -4.7455609 0.3889804 0 0 Z " fill="#DB541F" transform="translate(112.3828125,145.8046875)"/>
<path d="M0 0 C0.90105469 0.02707031 1.80210937 0.05414063 2.73046875 0.08203125 C3.76107422 0.13423828 3.76107422 0.13423828 4.8125 0.1875 C4.8125 1.5075 4.8125 2.8275 4.8125 4.1875 C2.1725 4.5175 -0.4675 4.8475 -3.1875 5.1875 C-3.1875 5.8475 -3.1875 6.5075 -3.1875 7.1875 C-2.07375 7.31125 -0.96 7.435 0.1875 7.5625 C3.8125 8.1875 3.8125 8.1875 5.8125 10.1875 C6.125 13.6875 6.125 13.6875 5.8125 17.1875 C2.49879 19.39664 1.4678979 19.41231553 -2.375 19.3125 C-3.27605469 19.29445312 -4.17710937 19.27640625 -5.10546875 19.2578125 C-5.79253906 19.23460937 -6.47960937 19.21140625 -7.1875 19.1875 C-7.1875 17.8675 -7.1875 16.5475 -7.1875 15.1875 C-2.7325 14.6925 -2.7325 14.6925 1.8125 14.1875 C1.8125 13.5275 1.8125 12.8675 1.8125 12.1875 C-0.20572917 12.02473958 -2.22395833 11.86197917 -4.2421875 11.69921875 C-6.1875 11.1875 -6.1875 11.1875 -8.1875 8.1875 C-8.53781189 5.38500488 -8.67776234 3.86201126 -6.9921875 1.54296875 C-4.56197119 -0.28232359 -3.00289556 -0.11699593 0 0 Z " fill="#DB511B" transform="translate(181.1875,145.8125)"/>
<path d="M0 0 C11.35368043 -0.36624776 11.35368043 -0.36624776 13.875 1.0625 C15.62336781 4.0735779 15.28209401 6.75058437 15.1875 10.1875 C15.16042969 11.45980469 15.13335937 12.73210937 15.10546875 14.04296875 C15.07066406 15.01878906 15.03585938 15.99460938 15 17 C13.68 17 12.36 17 11 17 C10.67 13.04 10.34 9.08 10 5 C8.35 5 6.7 5 5 5 C4.67 8.96 4.34 12.92 4 17 C2.68 17 1.36 17 0 17 C0 11.39 0 5.78 0 0 Z " fill="#D8450C" transform="translate(42,147)"/>
<path d="M0 0 C1.32 0 2.64 0 4 0 C4.99 2.64 5.98 5.28 7 8 C7.99 5.36 8.98 2.72 10 0 C11.32 0.33 12.64 0.66 14 1 C12.68 5.95 11.36 10.9 10 16 C8.35 16.33 6.7 16.66 5 17 C3.14670366 14.22005549 2.31436395 12.21743449 1.375 9.0625 C1.11460938 8.20785156 0.85421875 7.35320312 0.5859375 6.47265625 C0 4 0 4 0 0 Z " fill="#DA4C15" transform="translate(59,147)"/>
<path d="M0 0 C1.54296875 1.62109375 1.54296875 1.62109375 3 4 C2.92578125 6.91015625 2.92578125 6.91015625 2.3125 10.0625 C2.12300781 11.10535156 1.93351562 12.14820313 1.73828125 13.22265625 C1 16 1 16 -1 19 C-1.38499891 20.65549531 -1.72793135 22.3222433 -2 24 C-3.98 24.33 -5.96 24.66 -8 25 C-7.47662586 16.10263961 -4.10066905 7.85802627 0 0 Z " fill="#203641" transform="translate(36,38)"/>
<path d="M0 0 C1.32 0 2.64 0 4 0 C4.33 0.99 4.66 1.98 5 3 C5.99 2.34 6.98 1.68 8 1 C9.32 1 10.64 1 12 1 C12 2.65 12 4.3 12 6 C11.030625 6.28875 10.06125 6.5775 9.0625 6.875 C5.89335797 7.64214682 5.89335797 7.64214682 5 10 C4.77532169 11.53668865 4.59203195 13.07968054 4.4375 14.625 C4.31181641 15.85089844 4.31181641 15.85089844 4.18359375 17.1015625 C4.12300781 17.72804687 4.06242187 18.35453125 4 19 C2.68 19 1.36 19 0 19 C0 12.73 0 6.46 0 0 Z " fill="#D94A13" transform="translate(93,146)"/>
<path d="M0 0 C0.33 0 0.66 0 1 0 C1.0093457 0.60360352 1.01869141 1.20720703 1.02832031 1.82910156 C1.293892 15.48781787 1.59050112 27.1236318 9 39 C7.65686601 38.35330586 6.32608822 37.68096422 5 37 C4.175 36.59265625 3.35 36.1853125 2.5 35.765625 C-0.5487301 33.61245936 -1.15584652 32.07053955 -2.3125 28.5625 C-2.63863281 27.61503906 -2.96476562 26.66757813 -3.30078125 25.69140625 C-4 23 -4 23 -4 19 C-3.34 19 -2.68 19 -2 19 C-0.81968762 15.15158652 -0.66764649 11.241721 -0.4375 7.25 C-0.39431641 6.55261719 -0.35113281 5.85523437 -0.30664062 5.13671875 C-0.20110404 3.42468078 -0.1001009 1.71236439 0 0 Z " fill="#3A3D40" transform="translate(57,81)"/>
<path d="M0 0 C1.32 0 2.64 0 4 0 C4.33 0.99 4.66 1.98 5 3 C5.99 2.34 6.98 1.68 8 1 C9.32 1 10.64 1 12 1 C12 2.32 12 3.64 12 5 C11.05125 5.28875 10.1025 5.5775 9.125 5.875 C5.48768733 8.34837262 5.42065039 9.05128805 4.625 13.1875 C4.39142351 14.78818595 4.17499514 16.39185505 4 18 C2.68 18 1.36 18 0 18 C0 12.06 0 6.12 0 0 Z " fill="#D94810" transform="translate(141,146)"/>
<path d="M0 0 C0.80859375 1.62890625 0.80859375 1.62890625 1 4 C-0.57528279 6.20661 -2.07086468 8.0063531 -3.9375 9.9375 C-4.68833862 10.73655762 -4.68833862 10.73655762 -5.4543457 11.55175781 C-9.26877878 15.50313799 -13.12381737 18.42390352 -18 21 C-18.66 20.34 -19.32 19.68 -20 19 C-16.31507651 14.46571472 -12.50897455 10.74148952 -8 7 C-7.08259267 5.93487454 -6.18619071 4.85126882 -5.3125 3.75 C-3 1 -3 1 0 0 Z " fill="#152A38" transform="translate(142,106)"/>
<path d="M0 0 C3.96636671 1.48646767 7.61620164 3.30796135 11.3125 5.375 C12.38113281 5.96023437 13.44976562 6.54546875 14.55078125 7.1484375 C15.76314453 8.06496094 15.76314453 8.06496094 17 9 C17 10.32 17 11.64 17 13 C15.68 12.67 14.36 12.34 13 12 C12.01 13.32 11.02 14.64 10 16 C10 14.02 10 12.04 10 10 C6.72226496 10.75150023 6.72226496 10.75150023 5 14 C4.35089846 12.41800369 3.70585306 10.83434276 3.0625 9.25 C2.70285156 8.36828125 2.34320313 7.4865625 1.97265625 6.578125 C1.14643424 4.38813896 0.50630057 2.28101729 0 0 Z " fill="#2B3540" transform="translate(118,26)"/>
<path d="M0 0 C0.33 0.99 0.66 1.98 1 3 C-4.33333333 8.33333333 -9.66666667 13.66666667 -15 19 C-14.63920537 11.78410731 -10.03198174 7.06376004 -5.3125 2 C-3 0 -3 0 0 0 Z " fill="#142A33" transform="translate(52,34)"/>
<path d="M0 0 C1.32 0.33 2.64 0.66 4 1 C3.566875 1.85078125 3.566875 1.85078125 3.125 2.71875 C2.02147936 4.95644462 1.00160536 7.21508776 0 9.5 C-0.6590148 11.00337751 -1.32551982 12.5034971 -2 14 C-2.32742187 14.73734375 -2.65484375 15.4746875 -2.9921875 16.234375 C-4 18 -4 18 -6.125 18.75 C-7.053125 18.87375 -7.053125 18.87375 -8 19 C-7.76755742 17.00763504 -7.53118709 15.01556519 -7.265625 13.02734375 C-7.08205526 11.62627473 -6.93317554 10.22038126 -6.8125 8.8125 C-5.43827783 5.74692747 -2.58171358 4.0873429 0 2 C0 1.34 0 0.68 0 0 Z " fill="#182631" transform="translate(61,63)"/>
<path d="M0 0 C0.33 0.66 0.66 1.32 1 2 C-0.24241135 3.77616574 -1.49424871 5.54574043 -2.75 7.3125 C-3.44609375 8.29863281 -4.1421875 9.28476563 -4.859375 10.30078125 C-6.83098515 12.78688091 -8.23729715 14.47432828 -11 16 C-13.796875 16.29296875 -13.796875 16.29296875 -16.75 16.1875 C-18.22726563 16.14689453 -18.22726563 16.14689453 -19.734375 16.10546875 C-20.48203125 16.07066406 -21.2296875 16.03585938 -22 16 C-19.6094991 14.40633273 -17.27350653 13.04189948 -14.75 11.6875 C-6.32571644 7.06788958 -6.32571644 7.06788958 0 0 Z " fill="#93A3AE" transform="translate(141,101)"/>
<path d="M0 0 C3.22292394 1.47165477 5.84726712 3.30754194 8.625 5.5 C9.40101562 6.1084375 10.17703125 6.716875 10.9765625 7.34375 C13 9 13 9 15 11 C7.19198969 10.7481287 2.40871041 8.37504865 -4 4 C-3.01 3.34 -2.02 2.68 -1 2 C-0.67 2.66 -0.34 3.32 0 4 C0 3.01 0 2.02 0 1 C0 0.67 0 0.34 0 0 Z " fill="#983B0C" transform="translate(60,117)"/>
<path d="M0 0 C0.66 0.33 1.32 0.66 2 1 C2 4.44843788 1.66639745 4.7156957 -0.5625 7.125 C-4.26394692 11.25047902 -7.62965343 15.60259515 -11 20 C-12 17 -12 17 -10.99609375 14.765625 C-7.68685871 9.42440353 -4.23866171 4.64234378 0 0 Z " fill="#E2E6EA" transform="translate(49,28)"/>
<path d="M0 0 C2.00993705 3.01490557 2.72623341 5.2149927 3.625 8.6875 C3.88539062 9.68136719 4.14578125 10.67523438 4.4140625 11.69921875 C4.60742188 12.45847656 4.80078125 13.21773437 5 14 C3.68 13.67 2.36 13.34 1 13 C0.67 13.66 0.34 14.32 0 15 C-0.67305018 13.39850114 -1.33822227 11.79368971 -2 10.1875 C-2.37125 9.29417969 -2.7425 8.40085937 -3.125 7.48046875 C-4 5 -4 5 -4 2 C-2.68 2.33 -1.36 2.66 0 3 C0 2.01 0 1.02 0 0 Z " fill="#222D39" transform="translate(33,84)"/>
<path d="M0 0 C0.6875 1.8125 0.6875 1.8125 1 4 C-0.25 5.75 -0.25 5.75 -2 7 C-2.99 7 -3.98 7 -5 7 C-5.10441406 7.59296875 -5.20882812 8.1859375 -5.31640625 8.796875 C-6.1005641 11.32410372 -7.05054524 12.4230218 -8.9375 14.25 C-9.46214844 14.77078125 -9.98679687 15.2915625 -10.52734375 15.828125 C-12 17 -12 17 -14 17 C-14.33 18.32 -14.66 19.64 -15 21 C-15.66 21 -16.32 21 -17 21 C-15.49474961 15.56846713 -11.74549534 12.19087654 -7.9375 8.25 C-6.96200195 7.22326172 -6.96200195 7.22326172 -5.96679688 6.17578125 C-1.86814413 1.86814413 -1.86814413 1.86814413 0 0 Z " fill="#E68C2B" transform="translate(51,38)"/>
<path d="M0 0 C4.95 0 9.9 0 15 0 C15 1.32 15 2.64 15 4 C10.05 4 5.1 4 0 4 C0 2.68 0 1.36 0 0 Z " fill="#293D53" transform="translate(73,56)"/>
<path d="M0 0 C1.2065625 0.0309375 1.2065625 0.0309375 2.4375 0.0625 C2.4375 3.0325 2.4375 6.0025 2.4375 9.0625 C0.4575 9.0625 -1.5225 9.0625 -3.5625 9.0625 C-3.66015625 2.91015625 -3.66015625 2.91015625 -3.5625 1.0625 C-2.5625 0.0625 -2.5625 0.0625 0 0 Z " fill="#FDFAF8" transform="translate(131.5625,150.9375)"/>
<path d="M0 0 C1.66611905 -0.042721 3.33382885 -0.04063832 5 0 C6 1 6 1 6.09765625 2.84765625 C6.06510417 4.8984375 6.03255208 6.94921875 6 9 C4.02 9 2.04 9 0 9 C0 6.03 0 3.06 0 0 Z " fill="#FDF9F8" transform="translate(29,151)"/>
<path d="M0 0 C0.99 0.33 1.98 0.66 3 1 C3.66 0.67 4.32 0.34 5 0 C5.26554687 0.60328125 5.53109375 1.2065625 5.8046875 1.828125 C6.15789063 2.62734375 6.51109375 3.4265625 6.875 4.25 C7.22304688 5.03890625 7.57109375 5.8278125 7.9296875 6.640625 C8.90413905 8.78868608 9.92986429 10.89829202 11 13 C9.65686601 12.35330586 8.32608822 11.68096422 7 11 C6.13375 10.62875 5.2675 10.2575 4.375 9.875 C0.8383129 7.08287861 0.78761057 4.36765863 0 0 Z " fill="#423A34" transform="translate(55,107)"/>
<path d="M0 0 C0.99 0.33 1.98 0.66 3 1 C3 3.64 3 6.28 3 9 C-1.29 8.67 -5.58 8.34 -10 8 C-6.81237635 5.87491756 -4.73487777 5.4979837 -1 5 C-0.67 3.35 -0.34 1.7 0 0 Z " fill="#001F33" transform="translate(88,20)"/>
<path d="M0 0 C6.81818182 1.96969697 6.81818182 1.96969697 9 5 C9 5.99 9 6.98 9 8 C7.68 7.67 6.36 7.34 5 7 C4.01 8.32 3.02 9.64 2 11 C1.34 7.37 0.68 3.74 0 0 Z " fill="#4E5E6E" transform="translate(126,31)"/>
<path d="M0 0 C0.99 0.33 1.98 0.66 3 1 C2.38125 1.99 1.7625 2.98 1.125 4 C-1.12261959 7.89746801 -2.07617101 11.6118123 -3 16 C-3.33 16 -3.66 16 -4 16 C-4.17835515 11.45194365 -3.99785435 8.1205746 -2 4 C-2.66 3.67 -3.32 3.34 -4 3 C-2.1875 1.4375 -2.1875 1.4375 0 0 Z " fill="#D35912" transform="translate(57,62)"/>
<path d="M0 0 C0.6875 1.625 0.6875 1.625 1 4 C-0.4375 7.25 -0.4375 7.25 -2 10 C-2.66 9.67 -3.32 9.34 -4 9 C-4 8.34 -4 7.68 -4 7 C-4.99 6.67 -5.98 6.34 -7 6 C-6.67 5.01 -6.34 4.02 -6 3 C-4.02 3 -2.04 3 0 3 C0 2.01 0 1.02 0 0 Z " fill="#344A57" transform="translate(145,92)"/>
<path d="M0 0 C0.99 0.33 1.98 0.66 3 1 C2.9375 2.75 2.9375 2.75 2 5 C-0.24164322 6.59501537 -2.53566643 7.74543018 -5 9 C-4.42647107 5.12867972 -2.51295648 2.91827204 0 0 Z " fill="#172835" transform="translate(61,14)"/>
<path d="M0 0 C0.99 0.33 1.98 0.66 3 1 C1.6905332 2.33631236 0.37734515 3.66897925 -0.9375 5 C-1.66839844 5.7425 -2.39929688 6.485 -3.15234375 7.25 C-5 9 -5 9 -6 9 C-6 6.36 -6 3.72 -6 1 C-5.67 1.66 -5.34 2.32 -5 3 C-3.68 3 -2.36 3 -1 3 C-0.67 2.01 -0.34 1.02 0 0 Z " fill="#E65D10" transform="translate(98,54)"/>
<path d="M0 0 C1.33597652 0.80814651 2.668725 1.62163181 4 2.4375 C4.7425 2.88996094 5.485 3.34242187 6.25 3.80859375 C6.8275 4.20175781 7.405 4.59492187 8 5 C8 5.33 8 5.66 8 6 C6.56138706 5.91253716 5.12402492 5.80434652 3.6875 5.6875 C2.88699219 5.62949219 2.08648437 5.57148437 1.26171875 5.51171875 C-1.36272334 4.91793306 -2.30820672 4.04219706 -4 2 C-2.68 2 -1.36 2 0 2 C0 1.34 0 0.68 0 0 Z " fill="#B24E18" transform="translate(67,122)"/>
<path d="M0 0 C0.598125 0.309375 1.19625 0.61875 1.8125 0.9375 C4.08956772 2.10209704 4.08956772 2.10209704 7 3 C8.25 4.875 8.25 4.875 9 7 C8.67 7.99 8.34 8.98 8 10 C6.66070495 8.71451591 5.32871357 7.42141845 4 6.125 C2.88625 5.04605469 2.88625 5.04605469 1.75 3.9453125 C0 2 0 2 0 0 Z " fill="#2E4255" transform="translate(134,36)"/>
<path d="M0 0 C0.99 0.33 1.98 0.66 3 1 C1.8141763 4.37503669 0.72426311 6.64722731 -2 9 C-2.6875 6.1875 -2.6875 6.1875 -3 3 C-1.5625 1.125 -1.5625 1.125 0 0 Z " fill="#0F2432" transform="translate(40,33)"/>
<path d="M0 0 C2.92879371 0.62759865 5.36095629 1.58622659 8 3 C6 5 6 5 2.875 5.125 C1.451875 5.063125 1.451875 5.063125 0 5 C0 3.35 0 1.7 0 0 Z " fill="#051D2E" transform="translate(92,86)"/>
<path d="M0 0 C1.7074998 1.28062485 3.37373596 2.61767557 5 4 C5 4.66 5 5.32 5 6 C3.35 6.66 1.7 7.32 0 8 C0 5.36 0 2.72 0 0 Z " fill="#ED8322" transform="translate(92,21)"/>
<path d="M0 0 C0.99 0 1.98 0 3 0 C3 2.31 3 4.62 3 7 C2.01 7.33 1.02 7.66 0 8 C-1.125 2.25 -1.125 2.25 0 0 Z " fill="#0A1B2A" transform="translate(88,56)"/>
<path d="M0 0 C0.99 0.495 0.99 0.495 2 1 C1.01 1.495 1.01 1.495 0 2 C0 1.34 0 0.68 0 0 Z M-3 2 C-2.01 2.33 -1.02 2.66 0 3 C-1.375 4.5 -1.375 4.5 -3 6 C-3.66 6 -4.32 6 -5 6 C-5.33 7.32 -5.66 8.64 -6 10 C-6.66 10 -7.32 10 -8 10 C-6.8141763 6.62496331 -5.72426311 4.35277269 -3 2 Z " fill="#E17A29" transform="translate(42,49)"/>
<path d="M0 0 C4.29 0 8.58 0 13 0 C11.35 1.65 9.7 3.3 8 5 C8.33 3.68 8.66 2.36 9 1 C5.7 1.33 2.4 1.66 -1 2 C-0.67 1.34 -0.34 0.68 0 0 Z " fill="#DC4E0B" transform="translate(99,43)"/>
<path d="M0 0 C0.33 0.66 0.66 1.32 1 2 C-0.625 4.9375 -0.625 4.9375 -3 8 C-6.25 8.875 -6.25 8.875 -9 9 C-6 6 -3 3 0 0 Z " fill="#7E929F" transform="translate(141,101)"/>
<path d="M0 0 C0.33 0.99 0.66 1.98 1 3 C-1.78823655 4.0326802 -2.8677274 4.04509293 -5.75 3.0625 C-6.4925 2.711875 -7.235 2.36125 -8 2 C-5.14066998 -0.85933002 -3.8625627 -1.2875209 0 0 Z " fill="#24343E" transform="translate(64,28)"/>
<path d="M0 0 C0.33 0 0.66 0 1 0 C1.25 2.8125 1.25 2.8125 1 6 C-1 7.875 -1 7.875 -3 9 C-2.5020163 5.26512223 -2.12508244 3.18762365 0 0 Z " fill="#202E31" transform="translate(40,44)"/>
<path d="M0 0 C0.66 0.99 1.32 1.98 2 3 C0.35 5.31 -1.3 7.62 -3 10 C-4 7 -4 7 -3.22265625 5.17578125 C-2.1484375 3.45052083 -1.07421875 1.72526042 0 0 Z " fill="#D5DCE0" transform="translate(41,38)"/>
<path d="M0 0 C0 0.66 0 1.32 0 2 C-3.07115285 4.95303159 -5.8333396 5.52651586 -10 6 C-4.4 0 -4.4 0 0 0 Z " fill="#DD8C2D" transform="translate(62,32)"/>
<path d="M0 0 C1.65 0 3.3 0 5 0 C5.33 0.99 5.66 1.98 6 3 C3.69 3 1.38 3 -1 3 C-0.67 2.01 -0.34 1.02 0 0 Z " fill="#FCF3EF" transform="translate(161,151)"/>
<path d="M0 0 C1.65 0 3.3 0 5 0 C5.33 0.99 5.66 1.98 6 3 C3.69 3 1.38 3 -1 3 C-0.67 2.01 -0.34 1.02 0 0 Z " fill="#FCF5F1" transform="translate(80,151)"/>
<path d="M0 0 C2.97 0.33 5.94 0.66 9 1 C9 1.33 9 1.66 9 2 C7.71254964 2.38922918 6.41980403 2.76098036 5.125 3.125 C4.40570313 3.33382812 3.68640625 3.54265625 2.9453125 3.7578125 C2.30335937 3.83773437 1.66140625 3.91765625 1 4 C0.34 3.34 -0.32 2.68 -1 2 C-0.67 1.34 -0.34 0.68 0 0 Z " fill="#0F2236" transform="translate(69,57)"/>
<path d="M0 0 C0.99 0 1.98 0 3 0 C3.33 0.99 3.66 1.98 4 3 C1.69 3.66 -0.62 4.32 -3 5 C-1.125 1.125 -1.125 1.125 0 0 Z " fill="#0E1F29" transform="translate(49,34)"/>
<path d="M0 0 C1.32 1.32 2.64 2.64 4 4 C3.34 4.66 2.68 5.32 2 6 C1.34 5.34 0.68 4.68 0 4 C-2.06874034 3.3574765 -2.06874034 3.3574765 -4 3 C-3.01 2.67 -2.02 2.34 -1 2 C-0.67 1.34 -0.34 0.68 0 0 Z " fill="#BB4609" transform="translate(58,116)"/>
<path d="M0 0 C0.33 1.32 0.66 2.64 1 4 C-1.97 6.475 -1.97 6.475 -5 9 C-3.7508258 5.54074837 -2.32472205 2.85306797 0 0 Z " fill="#2D2522" transform="translate(61,61)"/>
<path d="M0 0 C-1.04874998 2.62187494 -1.64931313 3.79371361 -4.125 5.25 C-4.74375 5.4975 -5.3625 5.745 -6 6 C-6 5.01 -6 4.02 -6 3 C-2.66666667 0 -2.66666667 0 0 0 Z " fill="#F6F7F8" transform="translate(48,34)"/>
</svg>
